<svg width="20" height="20" viewBox="0 0 20 20" fill="none" xmlns="http://www.w3.org/2000/svg">
<path fill-rule="evenodd" clip-rule="evenodd" d="M0 9.89634C0 5.94315 0 3.96655 0.942013 2.54287C1.36267 1.90712 1.90712 1.36267 2.54287 0.942013C3.96655 0 5.94315 0 9.89634 0C13.8495 0 15.8261 0 17.2498 0.942013C17.8856 1.36267 18.43 1.90712 18.8507 2.54287C19.7927 3.96655 19.7927 5.94315 19.7927 9.89634C19.7927 13.8495 19.7927 15.8261 18.8507 17.2498C18.43 17.8856 17.8856 18.43 17.2498 18.8507C15.8261 19.7927 13.8495 19.7927 9.89634 19.7927C5.94315 19.7927 3.96655 19.7927 2.54287 18.8507C1.90712 18.43 1.36267 17.8856 0.942013 17.2498C0 15.8261 0 13.8495 0 9.89634ZM15.0191 9.89653C15.0191 12.7261 12.7253 15.02 9.89566 15.02C7.06605 15.02 4.7722 12.7261 4.7722 9.89653C4.7722 7.06692 7.06605 4.77307 9.89566 4.77307C12.7253 4.77307 15.0191 7.06692 15.0191 9.89653ZM9.89566 13.2866C11.7679 13.2866 13.2857 11.7688 13.2857 9.89653C13.2857 8.02425 11.7679 6.50647 9.89566 6.50647C8.02338 6.50647 6.5056 8.02425 6.5056 9.89653C6.5056 11.7688 8.02338 13.2866 9.89566 13.2866ZM15.2221 5.71959C15.887 5.71959 16.426 5.18061 16.426 4.51573C16.426 3.85086 15.887 3.31187 15.2221 3.31187C14.5572 3.31187 14.0183 3.85086 14.0183 4.51573C14.0183 5.18061 14.5572 5.71959 15.2221 5.71959Z" fill="#C69B7B"/>
</svg>
