<svg width="20" height="18" viewBox="0 0 20 18" fill="none" xmlns="http://www.w3.org/2000/svg">
<path d="M0 2.09091C0 1.48484 0.225232 0.984836 0.675676 0.590909C1.12612 0.196964 1.71172 0 2.43243 0C3.14029 0 3.71299 0.193927 4.15058 0.581818C4.60102 0.981818 4.82625 1.50302 4.82625 2.14545C4.82625 2.72727 4.60747 3.21211 4.16988 3.6C3.71944 4 3.12741 4.2 2.39382 4.2H2.37452C1.66666 4.2 1.09396 4 0.656371 3.6C0.218784 3.2 0 2.69696 0 2.09091ZM0.250965 18V5.85455H4.53668V18H0.250965ZM6.9112 18H11.1969V11.2182C11.1969 10.7939 11.2484 10.4667 11.3514 10.2364C11.5315 9.82424 11.805 9.47575 12.1718 9.19091C12.5386 8.90605 12.9987 8.76364 13.5521 8.76364C14.9936 8.76364 15.7143 9.67878 15.7143 11.5091V18H20V11.0364C20 9.24242 19.5496 7.88182 18.6486 6.95455C17.7477 6.02727 16.5573 5.56364 15.0772 5.56364C13.417 5.56364 12.1236 6.23636 11.1969 7.58182V7.61818H11.1776L11.1969 7.58182V5.85455H6.9112C6.93693 6.24242 6.94981 7.44847 6.94981 9.47273C6.94981 11.497 6.93693 14.3394 6.9112 18Z" fill="#C69B7B"/>
</svg>
