<svg width="51" height="48" viewBox="0 0 51 48" fill="none" xmlns="http://www.w3.org/2000/svg">
<mask id="path-1-inside-1_1_923" fill="white">
<path d="M7.08491 24.5804C6.69439 24.1899 6.69439 23.5567 7.08491 23.1662L10.6245 19.6266C12.9676 17.2835 16.7666 17.2835 19.1098 19.6266L22.6493 23.1662C23.0399 23.5567 23.0399 24.1899 22.6493 24.5804L19.1098 28.12C16.7666 30.4631 12.9676 30.4631 10.6245 28.12L7.08491 24.5804Z"/>
</mask>
<path d="M7.08491 24.5804C6.69439 24.1899 6.69439 23.5567 7.08491 23.1662L10.6245 19.6266C12.9676 17.2835 16.7666 17.2835 19.1098 19.6266L22.6493 23.1662C23.0399 23.5567 23.0399 24.1899 22.6493 24.5804L19.1098 28.12C16.7666 30.4631 12.9676 30.4631 10.6245 28.12L7.08491 24.5804Z" stroke="white" stroke-width="5" mask="url(#path-1-inside-1_1_923)"/>
<mask id="path-2-inside-2_1_923" fill="white">
<path d="M27.06 24.5804C26.6695 24.1899 26.6695 23.5567 27.06 23.1662L30.5996 19.6266C32.9427 17.2835 36.7417 17.2835 39.0849 19.6266L42.6244 23.1662C43.015 23.5567 43.015 24.1899 42.6244 24.5804L39.0849 28.12C36.7417 30.4631 32.9427 30.4631 30.5996 28.12L27.06 24.5804Z"/>
</mask>
<path d="M27.06 24.5804C26.6695 24.1899 26.6695 23.5567 27.06 23.1662L30.5996 19.6266C32.9427 17.2835 36.7417 17.2835 39.0849 19.6266L42.6244 23.1662C43.015 23.5567 43.015 24.1899 42.6244 24.5804L39.0849 28.12C36.7417 30.4631 32.9427 30.4631 30.5996 28.12L27.06 24.5804Z" stroke="white" stroke-width="5" mask="url(#path-2-inside-2_1_923)"/>
<mask id="path-3-inside-3_1_923" fill="white">
<path d="M24.1476 6.10359C24.5382 5.71307 25.1713 5.71307 25.5618 6.10359L29.1014 9.64316C31.4446 11.9863 31.4446 15.7853 29.1014 18.1284L25.5618 21.668C25.1713 22.0585 24.5382 22.0585 24.1476 21.668L20.6081 18.1284C18.2649 15.7853 18.2649 11.9863 20.6081 9.64316L24.1476 6.10359Z"/>
</mask>
<path d="M24.1476 6.10359C24.5382 5.71307 25.1713 5.71307 25.5618 6.10359L29.1014 9.64316C31.4446 11.9863 31.4446 15.7853 29.1014 18.1284L25.5618 21.668C25.1713 22.0585 24.5382 22.0585 24.1476 21.668L20.6081 18.1284C18.2649 15.7853 18.2649 11.9863 20.6081 9.64316L24.1476 6.10359Z" stroke="white" stroke-width="5" mask="url(#path-3-inside-3_1_923)"/>
<mask id="path-4-inside-4_1_923" fill="white">
<path d="M24.0166 25.0863C24.4072 24.6957 25.0403 24.6957 25.4309 25.0863L28.9704 28.6258C31.3136 30.969 31.3136 34.768 28.9704 37.1111L25.4309 40.6507C25.0403 41.0412 24.4072 41.0412 24.0166 40.6507L20.4771 37.1111C18.1339 34.768 18.1339 30.969 20.4771 28.6258L24.0166 25.0863Z"/>
</mask>
<path d="M24.0166 25.0863C24.4072 24.6957 25.0403 24.6957 25.4309 25.0863L28.9704 28.6258C31.3136 30.969 31.3136 34.768 28.9704 37.1111L25.4309 40.6507C25.0403 41.0412 24.4072 41.0412 24.0166 40.6507L20.4771 37.1111C18.1339 34.768 18.1339 30.969 20.4771 28.6258L24.0166 25.0863Z" stroke="white" stroke-width="5" mask="url(#path-4-inside-4_1_923)"/>
<path d="M29.4629 1.31055C30.8227 1.19765 31.9753 1.21652 33.0371 1.59375C33.7254 1.8383 34.2445 2.39985 34.9141 3.32031C35.5126 4.14326 36.2953 5.37208 37.4326 6.17383C38.692 7.0615 40.385 7.66304 41.6221 8.18848C43.0205 8.78249 43.8589 9.2812 44.2197 9.88379C44.6879 10.6657 44.9236 11.6396 45.1387 12.8936C45.343 14.0851 45.5305 15.561 45.9668 17.002C46.3564 18.2885 47.1819 19.6399 47.7539 20.7188C48.384 21.9072 48.789 22.8871 48.7891 23.793C48.7891 24.656 48.4179 25.423 47.8027 26.3936C47.2404 27.2807 46.3739 28.4592 45.9668 29.8037C45.5168 31.2903 45.4371 32.9858 45.2881 34.2891C45.1269 35.6981 44.8851 36.7821 44.2822 37.6074C43.6844 38.4258 42.7231 38.9925 41.4355 39.583C40.2481 40.1276 38.6735 40.7288 37.4326 41.6035C36.3116 42.3938 35.5331 43.5541 34.9336 44.3359C34.2736 45.1966 33.7494 45.7391 33.0371 45.9922C31.9752 46.3694 30.8227 46.3883 29.4629 46.2754C28.1881 46.1695 26.5622 45.9199 25.0195 45.9199C23.4769 45.9199 21.851 46.1695 20.5762 46.2754C19.2165 46.3883 18.0638 46.3694 17.002 45.9922C16.0342 45.6483 15.2535 45.0379 14.4131 44.2393C13.6248 43.4901 12.6688 42.4463 11.5859 41.6279C10.5291 40.8293 9.22187 40.1713 8.22656 39.5918C7.15634 38.9687 6.31703 38.3743 5.75684 37.6074C5.11653 36.7308 4.77213 35.5863 4.49512 34.1875C4.23738 32.8859 4.02214 31.2219 3.59277 29.8037C3.20623 28.5272 2.5085 27.3781 2.05273 26.4912C1.56632 25.5446 1.25 24.7338 1.25 23.793C1.25007 22.8871 1.65507 21.9072 2.28516 20.7188C2.85715 19.6399 3.68269 18.2885 4.07227 17.002C4.51811 15.5295 4.60121 14.039 4.74805 12.9297C4.90282 11.7607 5.13265 10.833 5.75684 9.97852C6.30314 9.23077 7.12145 8.68693 8.19141 8.11035C9.18492 7.57499 10.5071 6.96468 11.5859 6.14941C12.6885 5.31624 13.6458 4.214 14.4385 3.41797C15.2867 2.56616 16.0576 1.92929 17.002 1.59375C18.0637 1.21654 19.2165 1.19768 20.5762 1.31055C21.851 1.41639 23.4769 1.666 25.0195 1.66602C26.5622 1.66602 28.1881 1.4164 29.4629 1.31055Z" stroke="white" stroke-width="2.5"/>
</svg>
